<svg width="264" height="280" viewBox="0 0 264 280" fill="none" xmlns="http://www.w3.org/2000/svg">
<mask id="mask0" mask-type="alpha" maskUnits="userSpaceOnUse" x="0" y="0" width="264" height="280">
<path d="M12 160C12 226.274 65.7258 280 132 280C198.274 280 252 226.274 252 160H264V0H0V160H12Z" fill="white"/>
</mask>
<g mask="url(#mask0)">
<mask id="mask1" mask-type="alpha" maskUnits="userSpaceOnUse" x="32" y="36" width="200" height="244">
<path d="M156 180.611V199H160C199.765 199 232 231.235 232 271V280H32V271C32 231.235 64.2355 199 104 199H108V180.611C90.7626 172.422 78.3722 155.687 76.3051 135.881C70.4803 135.058 66 130.052 66 124V110C66 104.054 70.3246 99.1181 76 98.1659V92C76 61.0721 101.072 36 132 36C162.928 36 188 61.0721 188 92V98.1659C193.675 99.1181 198 104.054 198 110V124C198 130.052 193.52 135.058 187.695 135.881C185.628 155.687 173.237 172.422 156 180.611Z" fill="white"/>
</mask>
<g mask="url(#mask1)">
<path d="M156 180.611V199H160C199.765 199 232 231.235 232 271V280H32V271C32 231.235 64.2355 199 104 199H108V180.611C90.7626 172.422 78.3722 155.687 76.3051 135.881C70.4803 135.058 66 130.052 66 124V110C66 104.054 70.3246 99.1181 76 98.1659V92C76 61.0721 101.072 36 132 36C162.928 36 188 61.0721 188 92V98.1659C193.675 99.1181 198 104.054 198 110V124C198 130.052 193.52 135.058 187.695 135.881C185.628 155.687 173.237 172.422 156 180.611Z" fill="#D0C6AC"/>
<path d="M264 36H0V280H264V36Z" fill="#EDB98A"/>
<path fill-rule="evenodd" clip-rule="evenodd" d="M188 115V138C188 168.928 162.928 194 132 194C101.072 194 76 168.928 76 138V115V130C76 160.928 101.072 186 132 186C162.928 186 188 160.928 188 130V115Z" fill="black" fill-opacity="0.1"/>
</g>
<mask id="mask2" mask-type="alpha" maskUnits="userSpaceOnUse" x="32" y="199" width="200" height="81">
<path fill-rule="evenodd" clip-rule="evenodd" d="M165.96 199.295C202.936 202.325 232 233.294 232 271.052V280H32V271.052C32 232.953 61.592 201.765 99.0454 199.219C99.0153 199.593 99 199.969 99 200.348C99 212.211 113.998 221.828 132.5 221.828C151.002 221.828 166 212.211 166 200.348C166 199.995 165.987 199.644 165.96 199.295Z" fill="white"/>
</mask>
<g mask="url(#mask2)">
<path fill-rule="evenodd" clip-rule="evenodd" d="M165.96 199.295C202.936 202.325 232 233.294 232 271.052V280H32V271.052C32 232.953 61.592 201.765 99.0454 199.219C99.0153 199.593 99 199.969 99 200.348C99 212.211 113.998 221.828 132.5 221.828C151.002 221.828 166 212.211 166 200.348C166 199.995 165.987 199.644 165.96 199.295Z" fill="#E6E6E6"/>
<path d="M264 170H0V280H264V170Z" fill="#262E33"/>
<g opacity="0.6">
<g opacity="0.6">
<path opacity="0.6" d="M132.5 228.761C154.39 228.761 172.135 216.712 172.135 201.848C172.135 186.983 154.39 174.934 132.5 174.934C110.61 174.934 92.8649 186.983 92.8649 201.848C92.8649 216.712 110.61 228.761 132.5 228.761Z" fill="black" fill-opacity="0.16"/>
</g>
</g>
</g>
<path fill-rule="evenodd" clip-rule="evenodd" d="M100.785 199.122C62.5123 200.804 32 232.365 32 271.052H32V280H101.362C97.9607 267.92 96 253.709 96 238.5C96 224.173 97.74 210.731 100.785 199.122ZM163.638 280H232V271.052C232 232.707 202.025 201.363 164.229 199.174C167.265 210.771 169 224.194 169 238.5C169 253.709 167.039 267.92 163.638 280Z" fill="#3A4C5A"/>
<path fill-rule="evenodd" clip-rule="evenodd" d="M181 256L190.556 248.833C191.999 247.751 193.988 247.768 195.412 248.876L202 254L181 256Z" fill="#E6E6E6"/>
<path fill-rule="evenodd" clip-rule="evenodd" d="M101 198C97 217.333 98.6667 244.667 106 280H90L76 244L82 235L76 229L95 199C97.0277 198.369 99.0277 198.036 101 198Z" fill="#2F4351"/>
<path fill-rule="evenodd" clip-rule="evenodd" d="M163 198C167 217.333 165.333 244.667 158 280H174L188 244L182 235L188 229L169 199C166.972 198.369 164.972 198.036 163 198Z" fill="#2F4351"/>
<mask id="mask3" mask-type="alpha" maskUnits="userSpaceOnUse" x="113" y="147" width="38" height="19">
<path fill-rule="evenodd" clip-rule="evenodd" d="M113.118 149.128C114.176 158.62 122.226 166 132 166C141.804 166 149.874 158.574 150.892 149.04C150.974 148.273 150.117 147 149.043 147C134.149 147 122.738 147 115.087 147C114.007 147 113.012 148.178 113.118 149.128Z" fill="white"/>
</mask>
<g mask="url(#mask3)">
<path fill-rule="evenodd" clip-rule="evenodd" d="M113.118 149.128C114.176 158.62 122.226 166 132 166C141.804 166 149.874 158.574 150.892 149.04C150.974 148.273 150.117 147 149.043 147C134.149 147 122.738 147 115.087 147C114.007 147 113.012 148.178 113.118 149.128Z" fill="black" fill-opacity="0.7"/>
<path d="M143 136H122C119.239 136 117 138.239 117 141V147C117 149.761 119.239 152 122 152H143C145.761 152 148 149.761 148 147V141C148 138.239 145.761 136 143 136Z" fill="white"/>
<path d="M127 180C133.075 180 138 175.075 138 169C138 162.925 133.075 158 127 158C120.925 158 116 162.925 116 169C116 175.075 120.925 180 127 180Z" fill="#FF4F6D"/>
<path d="M137 180C143.075 180 148 175.075 148 169C148 162.925 143.075 158 137 158C130.925 158 126 162.925 126 169C126 175.075 130.925 180 137 180Z" fill="#FF4F6D"/>
</g>
<path fill-rule="evenodd" clip-rule="evenodd" d="M120 130C120 134.418 125.373 138 132 138C138.627 138 144 134.418 144 130" fill="black" fill-opacity="0.16"/>
<path d="M106 118C109.314 118 112 115.314 112 112C112 108.686 109.314 106 106 106C102.686 106 100 108.686 100 112C100 115.314 102.686 118 106 118Z" fill="black" fill-opacity="0.6"/>
<path d="M158 118C161.314 118 164 115.314 164 112C164 108.686 161.314 106 158 106C154.686 106 152 108.686 152 112C152 115.314 154.686 118 158 118Z" fill="black" fill-opacity="0.6"/>
<path d="M91.6302 99.1586C95.5452 93.6499 106.278 90.5608 115.523 92.8312C116.596 93.0946 117.679 92.4386 117.942 91.3659C118.206 90.2932 117.55 89.21 116.477 88.9466C105.74 86.31 93.3121 89.887 88.3698 96.8414C87.7299 97.7418 87.9411 98.9904 88.8414 99.6303C89.7418 100.27 90.9904 100.059 91.6302 99.1586Z" fill="black" fill-opacity="0.6"/>
<path d="M172.37 99.1586C168.455 93.6499 157.722 90.5608 148.477 92.8312C147.405 93.0946 146.321 92.4386 146.058 91.3659C145.795 90.2932 146.451 89.21 147.523 88.9466C158.26 86.31 170.688 89.887 175.631 96.8414C176.27 97.7418 176.059 98.9904 175.159 99.6303C174.259 100.27 173.01 100.059 172.37 99.1586Z" fill="black" fill-opacity="0.6"/>
<mask id="mask4" mask-type="alpha" maskUnits="userSpaceOnUse" x="0" y="0" width="264" height="280">
<path d="M264 0H0V280H264V0Z" fill="white"/>
</mask>
<g mask="url(#mask4)">
<mask id="mask5" mask-type="alpha" maskUnits="userSpaceOnUse" x="72" y="98" width="121" height="120">
<path fill-rule="evenodd" clip-rule="evenodd" d="M113.18 149.737C115.363 148.105 128.407 147.479 130.758 146.089C131.492 145.655 132.061 145.216 132.5 144.78C132.939 145.216 133.509 145.655 134.242 146.089C136.593 147.479 149.637 148.105 151.82 149.737C154.03 151.391 155.644 155.185 155.467 158.151C155.255 161.71 151.361 170.203 141.672 171.181C139.558 168.828 136.237 167.31 132.5 167.31C128.763 167.31 125.442 168.828 123.328 171.181C113.639 170.203 109.745 161.71 109.533 158.151C109.357 155.185 110.97 151.391 113.18 149.737ZM151.142 166.906C151.143 166.906 151.145 166.905 151.146 166.905C151.144 166.905 151.143 166.906 151.142 166.906ZM113.845 166.901C113.849 166.903 113.857 166.906 113.862 166.908C113.857 166.906 113.851 166.903 113.845 166.901ZM192.863 127.985C192.474 122.03 191.278 116.152 190.234 110.286C189.953 108.707 188.424 98 187.735 98C187.502 107.109 186.702 116.08 185.67 125.139C185.361 127.848 185.038 130.556 184.825 133.274C184.654 135.47 184.96 138.122 184.428 140.246C183.749 142.952 180.348 145.478 177.703 146.411C171.103 148.737 165.598 139.108 159.961 136.291C152.643 132.635 140.064 131.764 132.582 136.53C124.936 131.764 112.357 132.635 105.039 136.291C99.4024 139.108 93.897 148.737 87.2972 146.411C84.6521 145.478 81.2504 142.952 80.5724 140.246C80.0403 138.122 80.3463 135.47 80.175 133.274C79.9624 130.556 79.6389 127.848 79.3302 125.139C78.2983 116.08 77.4975 107.109 77.2654 98C76.5762 98 75.0468 108.707 74.7659 110.286C73.7221 116.152 72.5258 122.03 72.1376 127.985C71.7385 134.105 72.2149 140.167 73.4696 146.163C74.0687 149.028 74.7685 151.876 75.5189 154.704C76.3527 157.847 75.199 163.966 75.5723 167.192C76.2788 173.296 79.1543 185.2 82.3833 190.451C83.9441 192.989 85.7735 194.574 87.8165 196.619C89.7826 198.588 90.6039 201.64 92.7261 203.737C96.682 207.645 102.446 209.971 108.366 210.543C113.677 215.05 122.506 218 132.5 218C142.495 218 151.323 215.05 156.635 210.543C162.554 209.971 168.318 207.645 172.274 203.737C174.396 201.64 175.217 198.588 177.184 196.619C179.226 194.574 181.056 192.989 182.617 190.451C185.846 185.2 188.721 173.296 189.428 167.192C189.801 163.966 188.647 157.847 189.481 154.704C190.232 151.876 190.931 149.028 191.531 146.163C192.785 140.167 193.261 134.105 192.863 127.985Z" fill="white"/>
</mask>
<g mask="url(#mask5)">
<path fill-rule="evenodd" clip-rule="evenodd" d="M113.18 149.737C115.363 148.105 128.407 147.479 130.758 146.089C131.492 145.655 132.061 145.216 132.5 144.78C132.939 145.216 133.509 145.655 134.242 146.089C136.593 147.479 149.637 148.105 151.82 149.737C154.03 151.391 155.644 155.185 155.467 158.151C155.255 161.71 151.361 170.203 141.672 171.181C139.558 168.828 136.237 167.31 132.5 167.31C128.763 167.31 125.442 168.828 123.328 171.181C113.639 170.203 109.745 161.71 109.533 158.151C109.357 155.185 110.97 151.391 113.18 149.737ZM151.142 166.906C151.143 166.906 151.145 166.905 151.146 166.905C151.144 166.905 151.143 166.906 151.142 166.906ZM113.845 166.901C113.849 166.903 113.857 166.906 113.862 166.908C113.857 166.906 113.851 166.903 113.845 166.901ZM192.863 127.985C192.474 122.03 191.278 116.152 190.234 110.286C189.953 108.707 188.424 98 187.735 98C187.502 107.109 186.702 116.08 185.67 125.139C185.361 127.848 185.038 130.556 184.825 133.274C184.654 135.47 184.96 138.122 184.428 140.246C183.749 142.952 180.348 145.478 177.703 146.411C171.103 148.737 165.598 139.108 159.961 136.291C152.643 132.635 140.064 131.764 132.582 136.53C124.936 131.764 112.357 132.635 105.039 136.291C99.4024 139.108 93.897 148.737 87.2972 146.411C84.6521 145.478 81.2504 142.952 80.5724 140.246C80.0403 138.122 80.3463 135.47 80.175 133.274C79.9624 130.556 79.6389 127.848 79.3302 125.139C78.2983 116.08 77.4975 107.109 77.2654 98C76.5762 98 75.0468 108.707 74.7659 110.286C73.7221 116.152 72.5258 122.03 72.1376 127.985C71.7385 134.105 72.2149 140.167 73.4696 146.163C74.0687 149.028 74.7685 151.876 75.5189 154.704C76.3527 157.847 75.199 163.966 75.5723 167.192C76.2788 173.296 79.1543 185.2 82.3833 190.451C83.9441 192.989 85.7735 194.574 87.8165 196.619C89.7826 198.588 90.6039 201.64 92.7261 203.737C96.682 207.645 102.446 209.971 108.366 210.543C113.677 215.05 122.506 218 132.5 218C142.495 218 151.323 215.05 156.635 210.543C162.554 209.971 168.318 207.645 172.274 203.737C174.396 201.64 175.217 198.588 177.184 196.619C179.226 194.574 181.056 192.989 182.617 190.451C185.846 185.2 188.721 173.296 189.428 167.192C189.801 163.966 188.647 157.847 189.481 154.704C190.232 151.876 190.931 149.028 191.531 146.163C192.785 140.167 193.261 134.105 192.863 127.985Z" fill="#5E7AA9"/>
<path d="M280 72H16V316H280V72Z" fill="#2C1B18"/>
</g>
<mask id="mask6" mask-type="alpha" maskUnits="userSpaceOnUse" x="72" y="9" width="121" height="91">
<path fill-rule="evenodd" clip-rule="evenodd" d="M93.2519 52.0221C93.3749 51.9677 93.0697 51.9468 92.3361 51.9595C93.2277 51.9577 93.5329 51.9785 93.2519 52.0221ZM85.117 36.3016C85.1148 36.282 85.1338 36.4527 85.117 36.3016V36.3016ZM192.765 70.7657C192.501 67.4487 192.033 64.1519 191.247 60.9111C190.622 58.3354 189.769 55.8775 188.76 53.42C188.151 51.9354 186.728 49.8961 186.56 48.2945C186.395 46.7169 187.627 44.9691 187.889 43.1323C188.144 41.3448 188.101 39.4652 187.734 37.6939C186.901 33.671 184.14 29.93 179.877 28.8814C178.925 28.6472 176.913 28.9358 176.241 28.3816C175.47 27.746 174.933 25.5807 174.235 24.7122C172.244 22.2362 169.14 20.6417 165.866 21.1976C163.455 21.6068 164.839 22.1053 163.032 20.6864C162.027 19.8976 161.276 18.6932 160.3 17.8392C158.833 16.5564 157.15 15.4582 155.408 14.557C150.851 12.1989 145.654 10.4849 140.564 9.64943C131.279 8.12524 121.369 9.45409 112.369 11.8688C107.89 13.0703 103.382 14.5952 99.2221 16.6118C97.4386 17.4764 96.409 18.1936 94.5495 18.4201C91.6207 18.7767 89.1405 18.7589 86.3661 20.001C77.8298 23.8229 73.9849 32.6898 77.3067 41.175C77.9748 42.8816 78.8795 44.3802 80.1267 45.7586C81.6475 47.4393 82.1976 47.1085 80.8878 49.0412C78.929 51.9312 77.2777 55.0129 75.9333 58.2129C72.4043 66.6146 71.8138 76.0772 72.0436 85.0373C72.124 88.1741 72.2586 91.3495 72.7532 94.4562C72.9668 95.8009 73.0267 98.3293 74.0354 99.3271C74.5471 99.8331 75.2762 100.115 76.0036 99.9138C77.7131 99.4402 77.1253 98.1787 77.165 97.0076C77.3649 91.124 77.095 85.9191 78.4943 80.1065C79.5279 75.8119 81.2505 71.9115 83.4828 68.0714C86.3214 63.1872 89.3857 58.8977 93.2895 54.7155C94.2073 53.732 94.4079 53.3151 95.6386 53.2438C96.5705 53.19 97.9338 53.8282 98.8399 54.0492C100.838 54.5361 102.839 55.0174 104.873 55.3453C108.613 55.9482 112.317 55.9886 116.09 55.8704C123.516 55.6381 130.975 55.1172 138.175 53.2471C142.957 52.0054 147.197 49.7762 151.777 48.1422C151.859 48.1131 153.007 47.2951 153.208 47.3285C153.489 47.3748 155.185 49.1543 155.471 49.3784C157.697 51.1239 160.138 51.8567 162.541 53.2082C165.505 54.8746 162.635 52.49 164.269 54.5668C164.746 55.1716 164.99 56.2932 165.372 56.9783C166.588 59.1611 168.28 61.0795 170.303 62.6018C172.258 64.0725 175.196 64.7829 176.193 66.6972C176.962 68.1741 177.221 70.1813 177.841 71.7579C179.469 75.8932 181.618 79.7495 183.767 83.6443C185.499 86.7831 187.392 89.525 187.585 93.1118C187.652 94.3603 186.464 101.849 189.358 99.5717C189.786 99.2341 190.711 95.4157 190.901 94.7678C191.673 92.1351 191.947 89.3867 192.296 86.6817C192.99 81.3022 193.219 76.1837 192.765 70.7657Z" fill="white"/>
</mask>
<g mask="url(#mask6)">
<path fill-rule="evenodd" clip-rule="evenodd" d="M93.2519 52.0221C93.3749 51.9677 93.0697 51.9468 92.3361 51.9595C93.2277 51.9577 93.5329 51.9785 93.2519 52.0221ZM85.117 36.3016C85.1148 36.282 85.1338 36.4527 85.117 36.3016V36.3016ZM192.765 70.7657C192.501 67.4487 192.033 64.1519 191.247 60.9111C190.622 58.3354 189.769 55.8775 188.76 53.42C188.151 51.9354 186.728 49.8961 186.56 48.2945C186.395 46.7169 187.627 44.9691 187.889 43.1323C188.144 41.3448 188.101 39.4652 187.734 37.6939C186.901 33.671 184.14 29.93 179.877 28.8814C178.925 28.6472 176.913 28.9358 176.241 28.3816C175.47 27.746 174.933 25.5807 174.235 24.7122C172.244 22.2362 169.14 20.6417 165.866 21.1976C163.455 21.6068 164.839 22.1053 163.032 20.6864C162.027 19.8976 161.276 18.6932 160.3 17.8392C158.833 16.5564 157.15 15.4582 155.408 14.557C150.851 12.1989 145.654 10.4849 140.564 9.64943C131.279 8.12524 121.369 9.45409 112.369 11.8688C107.89 13.0703 103.382 14.5952 99.2221 16.6118C97.4386 17.4764 96.409 18.1936 94.5495 18.4201C91.6207 18.7767 89.1405 18.7589 86.3661 20.001C77.8298 23.8229 73.9849 32.6898 77.3067 41.175C77.9748 42.8816 78.8795 44.3802 80.1267 45.7586C81.6475 47.4393 82.1976 47.1085 80.8878 49.0412C78.929 51.9312 77.2777 55.0129 75.9333 58.2129C72.4043 66.6146 71.8138 76.0772 72.0436 85.0373C72.124 88.1741 72.2586 91.3495 72.7532 94.4562C72.9668 95.8009 73.0267 98.3293 74.0354 99.3271C74.5471 99.8331 75.2762 100.115 76.0036 99.9138C77.7131 99.4402 77.1253 98.1787 77.165 97.0076C77.3649 91.124 77.095 85.9191 78.4943 80.1065C79.5279 75.8119 81.2505 71.9115 83.4828 68.0714C86.3214 63.1872 89.3857 58.8977 93.2895 54.7155C94.2073 53.732 94.4079 53.3151 95.6386 53.2438C96.5705 53.19 97.9338 53.8282 98.8399 54.0492C100.838 54.5361 102.839 55.0174 104.873 55.3453C108.613 55.9482 112.317 55.9886 116.09 55.8704C123.516 55.6381 130.975 55.1172 138.175 53.2471C142.957 52.0054 147.197 49.7762 151.777 48.1422C151.859 48.1131 153.007 47.2951 153.208 47.3285C153.489 47.3748 155.185 49.1543 155.471 49.3784C157.697 51.1239 160.138 51.8567 162.541 53.2082C165.505 54.8746 162.635 52.49 164.269 54.5668C164.746 55.1716 164.99 56.2932 165.372 56.9783C166.588 59.1611 168.28 61.0795 170.303 62.6018C172.258 64.0725 175.196 64.7829 176.193 66.6972C176.962 68.1741 177.221 70.1813 177.841 71.7579C179.469 75.8932 181.618 79.7495 183.767 83.6443C185.499 86.7831 187.392 89.525 187.585 93.1118C187.652 94.3603 186.464 101.849 189.358 99.5717C189.786 99.2341 190.711 95.4157 190.901 94.7678C191.673 92.1351 191.947 89.3867 192.296 86.6817C192.99 81.3022 193.219 76.1837 192.765 70.7657Z" fill="#28354B"/>
<path d="M263 0H-1V280H263V0Z" fill="#2C1B18"/>
</g>
</g>
</g>
</svg>
